<?xml version="1.0" encoding="UTF-8"?>
<svg width="42px" height="42px" viewBox="0 0 42 42" version="1.1" xmlns="http://www.w3.org/2000/svg" xmlns:xlink="http://www.w3.org/1999/xlink">
    <!-- Generator: sketchtool 52.5 (67469) - http://www.bohemiancoding.com/sketch -->
    <title>ECEF04E1-BA62-4C54-B602-9A4DFE54789B</title>
    <desc>Created with sketchtool.</desc>
    <g id="Policy-&amp;-Rules" stroke="none" stroke-width="1" fill="none" fill-rule="evenodd">
        <g id="Dashboard/Policies/2.Add-Arrival-Airport" transform="translate(-123.000000, -479.000000)">
            <g id="noun_Airplane_738211_1A1A1A-Copy-2" transform="translate(123.000000, 479.000000)" fill="#1A1A1A" fill-rule="nonzero">
                <path d="M37.8138809,42 C36.7236677,42 35.7346949,41.6829384 35.0967478,41.4176871 C33.4353442,40.7255539 32.1987966,39.5777553 30.9750699,38.3630904 L25.6155181,33.0438943 L6.58099671,37.6718429 C6.49301924,37.6930984 6.38205269,37.7063831 6.29142264,37.7063831 C5.79892568,37.7063831 5.4505526,37.4243046 5.24188243,37.2555888 L5.20474621,37.2259196 L1.04548999,34.4804138 C0.700211594,34.2519169 0.506130654,33.855147 0.537961697,33.4419926 C0.569792739,33.0288383 0.822672689,32.665723 1.19845583,32.4934646 L17.5198229,25.0093043 L9.11112249,16.6642951 L2.97303645,17.9887802 C2.81432334,18.0233204 2.66887316,18.0516612 2.50043389,18.0516612 C1.83021361,18.0516612 1.48935619,17.6008668 1.34390601,17.4086814 L0.243082455,16.0031595 C0.049443613,15.7565068 -0.0341128738,15.4407737 0.0127494945,15.1303544 C0.0591697649,14.8199351 0.231145814,14.5427276 0.488888839,14.3638269 L8.03991949,9.11149709 C8.12480227,9.05215873 8.21012715,8.99592015 8.29456783,8.94056721 C8.49881702,8.80594886 8.67565615,8.68992909 8.74992858,8.58143733 L14.2761512,0.495922658 C14.4529904,0.237313721 14.7288594,0.0623984306 15.0383279,0.0141306668 C15.3482384,-0.0354655676 15.6634542,0.0468996074 15.9114711,0.239085016 L17.1736603,1.21949629 C17.2099123,1.24739417 17.2426276,1.26909253 17.2704797,1.28813394 C17.4844551,1.43470852 18.1365494,1.87974616 17.9292055,2.87698473 L16.5732915,9.39180437 L24.9139088,17.6690616 L32.2739532,0.878079357 C32.440182,0.499022422 32.7991654,0.239970663 33.2098743,0.20188784 C33.6241199,0.165133488 34.0215659,0.352447837 34.2545514,0.694307595 L37.0340204,4.76739834 C37.2877845,5.07693198 37.6719675,5.54455362 37.529612,6.1729202 L33.1011182,25.7811457 C33.100234,25.7842455 33.0993498,25.7877881 33.0984656,25.790445 L38.2405053,30.8935433 C39.2502567,31.8952101 40.2944918,32.9305315 41.0398687,34.3271968 C41.8966542,35.9319893 42.3900354,38.0411577 41.6097328,39.7256584 C41.4939031,40.3128424 40.9050288,40.8668146 40.4646994,41.2082315 L40.3939638,41.279969 L40.3837955,41.269784 C40.1472732,41.4464706 39.969992,41.5527482 39.9642447,41.5545195 C39.8802461,41.5846315 39.794037,41.6041158 39.7087122,41.6138579 C39.1459216,41.8680386 38.5079745,42 37.8138809,42 Z M25.8781242,30.6920586 C26.5160713,30.6920586 26.8746126,31.069787 27.0669252,31.2726002 C27.1014088,31.3093546 27.1416397,31.3518656 27.1898284,31.3996906 L32.5754639,36.7445705 C33.6731928,37.8334735 34.6860389,38.7793445 35.970333,39.3142753 C36.6016487,39.5773125 37.2559535,39.7221158 37.8138809,39.7221158 C38.4235338,39.7221158 38.9009994,39.5525144 39.2316886,39.2177398 C40.1141158,38.3263361 39.6768811,36.6046382 39.034513,35.4010439 C38.451386,34.3081554 37.5711692,33.4357931 36.6405533,32.5129489 L31.2195499,27.1330859 C30.5347404,26.4542375 30.7602103,25.6974521 30.8450931,25.4127165 C30.8570297,25.3719768 30.871619,25.3276944 30.8822293,25.2776554 L35.2081564,6.12730938 C35.1763254,6.08656961 35.1506837,6.0524722 35.1343261,6.02900255 L33.5317215,3.67495272 L26.3308323,20.1028197 C26.180077,20.4464508 25.8701664,20.6935463 25.502341,20.7639552 C25.1336314,20.8325929 24.7556378,20.7179016 24.4890528,20.4539788 L14.577662,10.6175399 C14.369876,10.4120698 14.0559865,9.95551872 14.2863195,9.21378932 L15.6046552,2.88362708 L15.4711416,2.78000638 L10.6261917,9.86828248 C10.2985972,10.3474175 9.87948849,10.6232966 9.54260996,10.8447083 C9.4745269,10.8894335 9.40555964,10.9346015 9.33703448,10.9824265 L2.77630293,15.5457228 L2.88063801,15.6785699 L9.2110366,14.3129022 C9.28973001,14.295632 9.37770747,14.2863328 9.45861137,14.2863328 C10.0412963,14.2863328 10.3825958,14.6910735 10.528046,14.8637746 L10.5032885,14.8389765 L20.2886815,24.5505391 C20.5539402,24.8135763 20.6733066,25.1904191 20.6078761,25.5588483 C20.5424457,25.9268347 20.3010602,26.2394681 19.9615291,26.3953419 L4.01064002,33.7099009 L6.49125085,35.3487907 C6.49169295,35.3487907 6.49169295,35.3487907 6.49213505,35.3492335 L25.3330176,30.7682242 C25.4890781,30.7301414 25.6752013,30.6920586 25.8781242,30.6920586 Z" id="Shape"></path>
            </g>
        </g>
    </g>
</svg>