<?xml version="1.0" encoding="UTF-8"?>
<svg width="42px" height="42px" viewBox="0 0 42 42" version="1.1" xmlns="http://www.w3.org/2000/svg" xmlns:xlink="http://www.w3.org/1999/xlink">
    <!-- Generator: sketchtool 52.5 (67469) - http://www.bohemiancoding.com/sketch -->
    <title>00856408-07FF-42D9-93AF-342288DB4D27</title>
    <desc>Created with sketchtool.</desc>
    <g id="Policy-&amp;-Rules" stroke="none" stroke-width="1" fill="none" fill-rule="evenodd">
        <g id="Dashboard/Policies/2.Add-Arrival-Airport" transform="translate(-986.000000, -479.000000)">
            <g id="noun_Airplane-Seat_1954190_1A1A1A-Copy" transform="translate(986.000000, 479.000000)" fill="#1A1A1A">
                <path d="M30.2133412,34.4433647 C32.5308922,34.4433647 34.4096386,32.5637976 34.4096386,30.245234 C34.4096386,27.9266705 32.5308922,26.0471033 30.2133412,26.0471033 L29.7685336,26.0471033 L29.3740817,24.9136081 C29.2452466,24.5664307 28.9042674,24.3446974 28.5348222,24.3678511 L13.7638554,24.3678511 C13.2250889,24.3788586 12.7282918,24.0780343 12.488181,23.595395 C9.65148398,17.524898 9.41649133,13.7213916 9.29060241,11.6727038 C9.23335204,11.187968 9.21371059,10.6995246 9.23185425,10.2117544 C10.0711137,7.36542174 10.6585954,3.58710411 9.08078754,1.4796425 C8.31852008,0.493303689 7.11895586,-0.053333388 5.87481634,0.0186930216 C4.34976983,-0.120913558 2.85904696,0.528198334 1.9219042,1.73992661 C0.486770497,3.80540691 1.42674111,6.97919372 1.67851895,7.71806472 C1.66054807,10.19315 1.76698866,12.6675737 1.99743756,15.1319635 C0.981933588,15.2495112 0,15.7197018 0,16.8112158 C0,16.9959336 0,17.5416906 1.35960035,28.5659818 C1.57719555,30.2684876 2.64623937,31.7430204 4.19629738,32.4786396 L4.19629738,39.4811216 C4.19629738,40.8722597 5.32354518,42 6.71407582,42 L32.7311196,42 C33.1946298,42 33.5703791,41.6240866 33.5703791,41.1603739 C33.5703791,38.146116 31.2204525,36.122617 27.6955627,36.122617 L13.4281516,36.122617 L13.4281516,34.4433647 L30.2133412,34.4433647 Z M32.7311196,30.245234 C32.7311196,31.6363722 31.6038718,32.7641125 30.2133412,32.7641125 L13.4281516,32.7641125 L13.4281516,30.245234 L21.6025389,30.245234 L24.3888804,31.8153349 C24.6354594,31.9466901 24.9312053,31.9466901 25.1777843,31.8153349 L28.8453482,29.9765537 C29.6801653,29.5351264 30.205514,28.6709854 30.2133412,27.7263556 C31.6038718,27.7263556 32.7311196,28.8540959 32.7311196,30.245234 Z M1.67851895,16.9539523 C1.84513319,16.8842562 2.02001424,16.8362839 2.19885983,16.8112158 C2.84508963,21.3535932 3.98648252,22.503881 4.83413459,22.6466175 C6.51265354,23.368696 7.01620923,25.6104978 6.56300911,27.2225799 C6.37926415,28.0775017 5.73012877,28.7561446 4.88449016,28.9773986 C4.48072869,29.0512582 4.18960324,29.4064444 4.19629738,29.8170247 L4.19629738,30.4971219 C3.54624716,29.9521508 3.12647031,29.1812238 3.02133412,28.3392827 C1.94708199,19.6071709 1.72887452,17.4745205 1.67851895,16.9539523 Z M6.71407582,40.3207477 C6.25056561,40.3207477 5.87481634,39.9448343 5.87481634,39.4811216 L5.87481634,32.9068489 C6.88124266,33.2628296 7.55389491,34.2150484 7.55333529,35.2829909 L7.55333564,40.3207477 L6.71407582,40.3207477 Z M27.6955627,37.8018693 C29.4664002,37.8018693 31.3379489,38.4819665 31.7743638,40.3207477 L9.23185425,40.3207477 L9.23185425,35.2829909 C9.23226129,33.2877511 7.82889042,31.5678707 5.87481634,31.1688228 L5.87481634,30.4383481 C6.99103144,29.9513649 8.39259477,28.6667369 8.39259477,26.0471033 C8.39259477,22.1260493 5.43000882,21.0933091 5.30411989,21.0093465 L5.23697914,21.0093465 C5.09430502,20.8834026 4.25504555,19.9850026 3.75148986,15.7448906 C3.47047199,13.0309915 3.33878934,10.3036895 3.35703791,7.57532828 C3.35791119,7.47515089 3.34085717,7.37562564 3.30668234,7.28145913 C2.99615633,6.44183299 2.39188951,4.01531345 3.30668234,2.70549667 C3.77666765,2.0253995 4.61592712,1.6979453 5.87481634,1.6979453 C6.58833395,1.63521277 7.28643592,1.93093464 7.73797238,2.48719387 C8.65276521,3.70465177 8.57723185,6.39145542 7.58690567,9.85911138 C7.49042898,10.4935775 7.49042898,11.1389929 7.58690567,11.773459 C7.72118719,13.9312982 7.97296503,17.9531074 10.9439436,24.3090772 C11.4660791,25.3877543 12.5660205,26.0656928 13.7638554,26.0471033 L27.9725184,26.0471033 L28.5348222,27.449279 C28.6827372,27.8504559 28.5056613,28.298762 28.1235851,28.4904154 L24.8588657,30.1696677 L22.2655539,28.7087182 C22.1337745,28.6199852 21.9795299,28.5704889 21.8207464,28.5659818 L12.5888922,28.5659818 C12.1253819,28.5659818 11.7496327,28.9418952 11.7496327,29.4056079 L11.7496327,36.9622432 C11.7496327,37.4259559 12.1253819,37.8018693 12.5888922,37.8018693 L27.6955627,37.8018693 Z" id="Shape" fill-rule="nonzero"></path>
                <path d="M35.1916758,0 L30.0854326,0 C26.325299,0 23.2771084,3.04230604 23.2771084,6.79518072 L23.2771084,16.9879518 C23.2771084,20.7408265 26.325299,23.7831325 30.0854326,23.7831325 L35.1916758,23.7831325 C38.9518094,23.7831325 42,20.7408265 42,16.9879518 L42,6.79518072 C42,3.04230604 38.9518094,0 35.1916758,0 Z M40.2979189,16.9879518 C40.2979189,19.8026078 38.011776,22.0843373 35.1916758,22.0843373 L30.0854326,22.0843373 C27.2653324,22.0843373 24.9791895,19.8026078 24.9791895,16.9879518 L24.9791895,6.79518072 C24.9791895,3.98052471 27.2653324,1.69879518 30.0854326,1.69879518 L35.1916758,1.69879518 C38.011776,1.69879518 40.2979189,3.98052471 40.2979189,6.79518072 L40.2979189,16.9879518 Z" id="Shape" fill-rule="nonzero"></path>
                <path d="M34.2353765,2.53012048 L31.0417319,2.53012048 C28.1527454,2.53480602 25.8119303,4.86773956 25.8072289,7.7469989 L25.8072289,16.1467689 C25.8072289,16.1467689 25.8072289,16.1467689 25.8072289,16.1467689 C25.8675566,18.9813685 28.1883799,21.2490244 31.0331928,21.253012 L34.2268373,21.253012 C37.1191581,21.2530159 39.4651689,18.9187121 39.4698795,16.0361336 L39.4698795,7.7469989 C39.4651781,4.86773956 37.1243631,2.53480602 34.2353765,2.53012048 Z M33.3814608,15.2957284 L27.5150602,15.2957284 L27.5150602,11.0405257 C28.5490115,11.1858669 29.504681,11.6710782 30.230512,12.4192114 L31.0246536,13.9936364 C31.1326729,14.1905064 31.30863,14.3416828 31.5199247,14.4191566 C31.60642,14.4406104 31.6956206,14.4492137 31.7846386,14.4446878 L33.065512,14.4446878 C33.2210336,14.709005 33.3334431,14.996264 33.3985392,15.2957284 L33.3814608,15.2957284 Z M33.4924699,12.7426068 L32.5446235,12.7426068 C32.5139018,12.3268073 32.6252568,11.9128817 32.8605723,11.5681709 C33.2481833,11.1740969 33.7960749,10.9795285 34.3463855,11.0405257 C34.8179901,11.0405257 35.2003012,10.6595019 35.2003012,10.1894852 C35.2003012,10.1299124 35.3027711,8.85335159 37.7620482,8.61506024 L37.7620482,12.7426068 L33.4924699,12.7426068 Z M31.0417319,4.23220153 L34.2353765,4.23220153 C35.8644532,4.23977482 37.2763257,5.3584342 37.6510392,6.93851041 C34.9526657,7.19382256 33.9962801,8.50442497 33.663253,9.38099671 C32.8179077,9.45396775 32.0383814,9.86544924 31.5028464,10.521391 C31.3873417,10.6697936 31.2872077,10.8294685 31.2039759,10.9979737 C30.1945054,10.0501792 28.8960154,9.46602878 27.5150602,9.33844469 L27.5150602,7.7469989 C27.5150602,6.81481668 27.8866192,5.92081422 28.5479985,5.26166185 C29.2093777,4.60250948 30.1064004,4.23220153 31.0417319,4.23220153 Z M34.2353765,19.550931 L31.0417319,19.550931 C29.4549631,19.5673487 28.0545503,18.5205755 27.6260693,16.9978094 L34.3463855,16.9978094 C34.8179901,16.9978094 35.2003012,16.6167856 35.2003012,16.1467689 C35.2026791,15.5683753 35.1103831,14.9934674 34.9270482,14.4446878 L37.7620482,14.4446878 L37.7620482,16.0361336 C37.7620482,17.9773026 36.1831035,19.550931 34.2353765,19.550931 Z" id="Shape" fill-rule="nonzero"></path>
                <circle id="Oval" cx="25.0481928" cy="27.5783133" r="1"></circle>
            </g>
        </g>
    </g>
</svg>