<?xml version="1.0" encoding="UTF-8"?>
<svg width="42px" height="42px" viewBox="0 0 42 42" version="1.1" xmlns="http://www.w3.org/2000/svg" xmlns:xlink="http://www.w3.org/1999/xlink">
    <!-- Generator: sketchtool 52.5 (67469) - http://www.bohemiancoding.com/sketch -->
    <title>4061142D-E66F-4C1F-A0E5-76F7E7021B65</title>
    <desc>Created with sketchtool.</desc>
    <g id="Policy-&amp;-Rules" stroke="none" stroke-width="1" fill="none" fill-rule="evenodd">
        <g id="Dashboard/Policies/2.Add-Arrival-Airport" transform="translate(-768.000000, -479.000000)">
            <g id="noun_itinerary_1817669_1A1A1A-Copy" transform="translate(768.000000, 479.000000)" fill="#1A1A1A" fill-rule="nonzero">
                <path d="M34.9762944,41.3079761 C31.7421504,38.2123408 29.4,34.7617796 29.4,31.8214141 C29.4,28.3112018 32.2252428,25.4571313 35.7,25.4571313 C39.1747572,25.4571313 42,28.3112018 42,31.8214737 C41.9998368,34.7523276 39.6567293,38.2036368 36.4215104,41.3071687 L35.6992816,42 L34.9762944,41.3079761 Z M39.9,31.8214141 C39.9,29.482834 38.0149592,27.5785589 35.7,27.5785589 C33.3850409,27.5785589 31.5,29.482834 31.5,31.8214141 C31.5,33.7926236 33.2394327,36.5270344 35.6977616,39.0515268 C38.1579866,36.5208268 39.8998908,33.7842474 39.9,31.8214141 Z M35.7,33.9428417 C34.5402021,33.9428417 33.6,32.9930461 33.6,31.8214141 C33.6,30.6497821 34.5402021,29.6999865 35.7,29.6999865 C36.8597979,29.6999865 37.8,30.6497821 37.8,31.8214141 C37.8,32.9930461 36.8597979,33.9428417 35.7,33.9428417 Z M10.5,13.7892794 C12.239697,13.7892794 13.65,12.3645862 13.65,10.607138 C13.65,8.84968987 12.239697,7.42499662 10.5,7.42499662 C8.76030305,7.42499662 7.35,8.84968987 7.35,10.607138 C7.35,12.3645862 8.76030305,13.7892794 10.5,13.7892794 Z M10.5,15.9107071 C7.60050507,15.9107071 5.25,13.5362183 5.25,10.607138 C5.25,7.67805776 7.60050507,5.30356902 10.5,5.30356902 C13.3994949,5.30356902 15.75,7.67805776 15.75,10.607138 C15.75,13.5362183 13.3994949,15.9107071 10.5,15.9107071 Z M11.3750315,22.1904957 C12.3337376,21.1929934 13.290681,20.1926821 14.1837202,19.2526813 C14.239194,19.1942842 14.239194,19.1942842 14.294653,19.1358779 C15.5505392,17.8131075 16.5668531,16.7282883 17.2381478,15.9913763 C18.535942,14.4724687 19.25,12.5441003 19.25,10.5617483 C19.25,5.91408024 15.4079982,2.12142761 10.675,2.12142761 C5.94231628,2.12142761 2.1,5.91425666 2.1,10.5617483 C2.1,12.4266036 2.70439756,14.1872353 3.83965182,15.6562502 C5.52565818,17.6922278 8.60698226,21.0151956 10.5560296,23.0415085 C10.7865167,22.8023704 11.0620069,22.5161877 11.3750315,22.1904957 Z M6.8055582,22.1373323 C4.92301381,20.1182993 3.32689039,18.3433002 2.20685105,16.989844 C0.762080611,15.1215443 0,12.9015762 0,10.5617483 C0,4.73150905 4.79324376,0 10.675,0 C16.5570868,0 21.3500001,4.73134984 21.3500001,10.5617483 C21.3500001,13.0544775 20.4539057,15.4744491 18.8060049,17.4023181 C18.1004683,18.1776258 17.0755881,19.2715886 15.8102296,20.6043359 C15.7545366,20.6629885 15.7545366,20.6629885 15.6988344,20.7216261 C14.8026697,21.6649167 13.8430245,22.6680524 12.8817062,23.6682727 C12.3022685,24.2711586 11.8509623,24.7391695 11.5729492,25.0267838 C11.3051079,25.3023468 10.9384049,25.4571313 10.5563066,25.4571313 C10.1737128,25.4571313 9.80654537,25.301945 9.53860574,25.025208 C9.15945124,24.6354351 7.93966717,23.3536669 6.8055582,22.1373323 Z M26.5883541,11.6678518 C26.0084551,11.6678518 25.5383541,11.1929541 25.5383541,10.607138 C25.5383541,10.021322 26.0084551,9.54642423 26.5883541,9.54642423 L30.2834553,9.54642423 C33.8548293,9.54642423 36.75,12.4711361 36.75,16.0789511 C36.75,19.6867661 33.8548293,22.611478 30.2834553,22.611478 L23.0602544,22.611478 C20.1827103,22.611478 17.85,24.9679905 17.85,27.8748958 C17.85,30.7818013 20.1827103,33.1383136 23.0602544,33.1383136 L24.8527383,33.1383136 C25.4326374,33.1383136 25.9027383,33.6132115 25.9027383,34.1990274 C25.9027383,34.7848435 25.4326374,35.2597412 24.8527383,35.2597412 L23.0602544,35.2597412 C19.0229124,35.2597412 15.75,31.9534333 15.75,27.8748958 C15.75,23.7963583 19.0229124,20.4900504 23.0602544,20.4900504 L30.2834553,20.4900504 C32.6950313,20.4900504 34.65,18.515134 34.65,16.0789511 C34.65,13.6427683 32.6950313,11.6678518 30.2834553,11.6678518 L26.5883541,11.6678518 Z" id="Shape"></path>
            </g>
        </g>
    </g>
</svg>