<?xml version="1.0" encoding="UTF-8"?>
<svg width="42px" height="29px" viewBox="0 0 42 29" version="1.1" xmlns="http://www.w3.org/2000/svg" xmlns:xlink="http://www.w3.org/1999/xlink">
    <!-- Generator: sketchtool 52.5 (67469) - http://www.bohemiancoding.com/sketch -->
    <title>8990C4EC-56B7-439C-938F-1C650D954C92</title>
    <desc>Created with sketchtool.</desc>
    <g id="Policy-&amp;-Rules" stroke="none" stroke-width="1" fill="none" fill-rule="evenodd">
        <g id="Dashboard/Policies/2.Add-Arrival-Airport" transform="translate(-1201.000000, -486.000000)">
            <g id="noun_Price-Tag_956395_1A1A1A-Copy" transform="translate(1201.000000, 486.000000)" fill="#1A1A1A" fill-rule="nonzero">
                <path d="M5.13860173,0.00130094903 C4.53759148,0.0587903177 4.07912548,0.572238534 4.08172846,1.18492132 L4.08172846,2.97884594 C4.04559393,2.97092618 4.00910884,2.96475453 3.97239674,2.96035187 L1.16621601,2.96035187 C1.12979214,2.95861727 1.09330816,2.95861727 1.05688429,2.96035187 C0.455874044,3.01784124 -0.00259195197,3.53128946 1.1028586e-05,4.14397224 L1.1028586e-05,27.8163796 C7.54239822e-05,28.470048 0.522165459,28.9999346 1.16621601,29 L31.1777723,29 C31.468429,28.9979546 31.7478594,28.8858324 31.9613163,28.6856008 L35.7697044,25.1347397 C36.0114958,24.9121218 36.1502919,24.596844 36.1523654,24.2655185 L36.1523654,19.8454362 L38.1021144,18.0330175 C38.3439058,17.8103996 38.4827019,17.4951217 38.4847754,17.1637963 L38.4847754,14.2047454 L40.8171854,14.2047454 C41.2377608,14.2107822 41.6289589,13.986515 41.8409824,13.6178202 C42.0530059,13.2491253 42.0530059,12.7931247 41.8409824,12.4244298 C41.6289589,12.055735 41.2377608,11.8314678 40.8171854,11.8375046 L38.4847754,11.8375046 L38.4847754,7.69483335 C38.4878543,7.3570698 38.3486165,7.0340593 38.1021144,6.80711807 L31.1048845,0.297206041 C30.8887046,0.103689408 30.609576,-0.00172341446 30.3213405,0.00130094903 L5.24793344,0.00130094903 C5.21150957,-0.000433649678 5.17502559,-0.000433649678 5.13860173,0.00130094903 Z M6.41413842,2.36854169 L29.8840137,2.36854169 L36.1523654,8.21266726 L36.1523654,11.8375046 L33.0910774,11.8375046 C32.5661545,9.8033838 30.73111,8.28664354 28.5720331,8.28664354 C26.0095373,8.28664354 23.9072131,10.4203501 23.9072131,13.021125 C23.9072131,15.6218941 26.0095373,17.7556065 28.5720331,17.7556065 C30.73111,17.7556065 32.5661545,16.2388532 33.0910774,14.2047454 L36.1523654,14.2047454 L36.1523654,16.6274683 L29.8475698,22.490088 L6.41413842,22.490088 L6.41413842,2.36854169 Z M14.4500196,4.12547817 C13.8491954,4.19248891 13.3983684,4.71426704 13.4113683,5.32759261 L13.4113683,6.01187314 C12.7767242,6.08899902 12.0960395,6.2211242 11.4433974,6.52970705 C10.3639167,7.04010782 9.32965088,8.20711016 9.32965088,9.766169 C9.32965088,10.6721416 9.83136858,11.3971387 10.3683022,11.8744928 C10.9052358,12.3518469 11.5173797,12.6681162 12.0993877,12.9101606 C12.5799452,13.1100185 13.0227824,13.2635387 13.4113683,13.3725123 L13.4113683,16.4240336 C12.2067019,16.129044 11.0607364,15.5178242 11.0607364,15.5178242 C10.492137,15.2011905 9.77829043,15.4123324 9.46631552,15.989423 C9.15434061,16.5665135 9.36237589,17.2910202 9.93097532,17.6076539 C9.93097532,17.6076539 11.4917104,18.521787 13.4113683,18.8282625 L13.4113683,19.531037 C13.4054203,19.9578931 13.6263877,20.3549331 13.9896577,20.5701228 C14.3529277,20.7853125 14.8022189,20.7853125 15.1654889,20.5701228 C15.5287589,20.3549331 15.7497263,19.9578931 15.7437783,19.531037 L15.7437783,18.8652506 C16.3784229,18.7881288 17.0591105,18.6374913 17.7117492,18.3289226 C18.7912235,17.8184863 19.8254957,16.6515254 19.8254957,15.0924607 C19.8254957,14.1864584 19.3237815,13.4430561 18.7868444,12.9656428 C18.2499073,12.4883005 17.6377715,12.1720194 17.0557589,11.929975 C16.5758772,11.7304042 16.1320493,11.6098507 15.7437783,11.5046114 L15.7437783,8.45309015 C16.9484476,8.74291262 18.0944102,9.32231136 18.0944102,9.32231136 C18.6630096,9.63894508 19.3768561,9.42780312 19.688831,8.8507126 C20.0008059,8.27362207 19.7927707,7.5491154 19.2241713,7.23248164 C19.2241713,7.23248164 17.6638514,6.33243778 15.7437783,6.03036721 L15.7437783,5.32759261 C15.7510132,4.98671447 15.6130753,4.65922393 15.3652906,4.42899118 C15.1175058,4.19875843 14.7839402,4.08814472 14.4500196,4.12547817 Z M2.33242099,5.32759261 L3.97239674,5.32759261 C4.00882061,5.32932721 4.04530459,5.32932721 4.08172846,5.32759261 L4.08172846,23.6737083 C4.08179286,24.3273767 4.60388289,24.8572633 5.24793344,24.8573287 L30.3213405,24.8573287 C30.6119973,24.8552833 30.8914276,24.7431611 31.1048845,24.5429295 L33.8199555,22.0092422 L33.8199555,23.7291905 L30.7040015,26.6327593 L2.33242099,26.6327593 L2.33242099,5.32759261 Z M13.4113683,8.39760794 L13.4113683,10.8943072 C13.2663466,10.8439778 13.1208299,10.788907 12.9740414,10.7278605 C12.5356201,10.5455297 12.1273346,10.3021064 11.8989462,10.0990622 C11.6705578,9.89601807 11.6620608,9.82585305 11.6620608,9.766169 C11.6620608,9.1085436 11.8626767,8.94202005 12.4273829,8.67501897 C12.6957581,8.54812717 13.0505614,8.46132045 13.4113683,8.39760794 Z M28.5720331,10.6538843 C29.4438121,10.6538843 30.1779376,11.1329404 30.5764479,11.8375046 L28.5720331,11.8375046 C28.5356092,11.83577 28.4991252,11.83577 28.4627013,11.8375046 C28.045997,11.8572446 27.6713326,12.1011432 27.4798736,12.4773047 C27.2884146,12.8534663 27.3092562,13.304727 27.5345458,13.6610618 C27.7598353,14.0173965 28.1553365,14.2246545 28.5720331,14.2047454 L30.5764479,14.2047454 C30.1779376,14.9092995 29.4438121,15.3883658 28.5720331,15.3883658 C27.2700655,15.3883658 26.2396231,14.3425188 26.2396231,13.021125 C26.2396231,11.6997016 27.2700655,10.6538843 28.5720331,10.6538843 Z M15.7437783,13.9828166 C15.8881865,14.0329695 16.0349662,14.0699902 16.1811051,14.1307691 C16.6195218,14.3131058 17.0278154,14.5380825 17.2562004,14.7410734 C17.4845853,14.9441234 17.4930857,15.032747 17.4930857,15.0924607 C17.4930857,15.750021 17.2924763,15.9165859 16.7277637,16.1836107 C16.4594264,16.3104664 16.1045263,16.3973133 15.7437783,16.4610217 L15.7437783,13.9828166 Z" id="Shape"></path>
            </g>
        </g>
    </g>
</svg>