<?xml version="1.0" encoding="UTF-8"?>
<svg width="42px" height="40px" viewBox="0 0 42 40" version="1.1" xmlns="http://www.w3.org/2000/svg" xmlns:xlink="http://www.w3.org/1999/xlink">
    <!-- Generator: sketchtool 52.5 (67469) - http://www.bohemiancoding.com/sketch -->
    <title>05F5F361-5C84-4BE8-8637-320AD6BC3425</title>
    <desc>Created with sketchtool.</desc>
    <g id="Policy-&amp;-Rules" stroke="none" stroke-width="1" fill="none" fill-rule="evenodd">
        <g id="Dashboard/Policies/2.Add-Arrival-Airport" transform="translate(-553.000000, -480.000000)">
            <g id="noun_Star_88703_1A1A1A-Copy" transform="translate(553.000000, 480.000000)" fill="#1A1A1A" fill-rule="nonzero">
                <path d="M38.8956522,13.0909091 L29.3086957,13.0909091 C28.1217391,13.0909091 27.026087,12.3181818 26.6608696,11.1818182 L23.6934783,2.09090909 C23.2826087,0.818181818 22.1413043,0.181818182 21.0456522,0.181818182 C19.95,0.181818182 18.8086957,0.818181818 18.3978261,2.09090909 L15.4304348,11.1818182 C15.0652174,12.3181818 13.9695652,13.0909091 12.7826087,13.0909091 L3.10434783,13.0909091 C0.410869565,13.0909091 -0.730434783,16.5454545 1.46086957,18.1363636 L9.22173913,23.7727273 C10.1804348,24.5 10.5913043,25.7272727 10.226087,26.9090909 L7.25869565,36 C6.61956522,37.9545455 8.17173913,39.6363636 9.95217391,39.6363636 C10.5,39.6363636 11.0478261,39.4545455 11.5956522,39.0909091 L19.3565217,33.4545455 C19.8586957,33.0909091 20.4065217,32.9090909 21,32.9090909 C21.5934783,32.9090909 22.1413043,33.0909091 22.6434783,33.4545455 L30.4043478,39.0909091 C30.9521739,39.4545455 31.5,39.6363636 32.0478261,39.6363636 C33.7826087,39.6363636 35.3347826,37.9090909 34.7413043,36 L31.773913,26.9090909 C31.4086957,25.7727273 31.8195652,24.5 32.7782609,23.7727273 L40.5391304,18.1363636 C42.7304348,16.5909091 41.6347826,13.0909091 38.8956522,13.0909091 Z M39.4891304,16.6818182 L31.7282609,22.3181818 C30.0847826,23.5 29.4456522,25.5454545 30.0391304,27.4545455 L33.0065217,36.5454545 C33.0978261,36.8636364 33.0521739,37.1363636 32.8695652,37.4090909 C32.6869565,37.6818182 32.3673913,37.8636364 32.0478261,37.8636364 C31.8652174,37.8636364 31.6826087,37.8181818 31.5,37.6818182 L23.7391304,32 C22.9630435,31.4090909 22.0043478,31.1363636 21,31.1363636 C19.9956522,31.1363636 19.0826087,31.4545455 18.2608696,32 L10.5,37.6363636 C10.3173913,37.7727273 10.1347826,37.8181818 9.95217391,37.8181818 C9.6326087,37.8181818 9.31304348,37.6363636 9.13043478,37.3636364 C8.94782609,37.1363636 8.90217391,36.8181818 8.99347826,36.5 L11.9608696,27.4090909 C12.6,25.5 11.9152174,23.4545455 10.2717391,22.2727273 L2.51086957,16.6363636 C2.00869565,16.2727273 2.1,15.7727273 2.14565217,15.5454545 C2.19130435,15.3636364 2.41956522,14.8636364 3.05869565,14.8636364 L12.6913043,14.8636364 C14.7,14.8636364 16.4804348,13.5909091 17.073913,11.6818182 L20.0413043,2.59090909 C20.223913,2 20.7717391,1.90909091 20.9543478,1.90909091 C21.1369565,1.90909091 21.6847826,1.95454545 21.8673913,2.59090909 L24.8347826,11.6818182 C25.473913,13.5909091 27.2086957,14.8636364 29.2173913,14.8636364 L38.85,14.8636364 C39.4891304,14.8636364 39.7173913,15.3181818 39.7630435,15.5454545 C39.9,15.8181818 39.9913043,16.3181818 39.4891304,16.6818182 Z" id="Shape"></path>
            </g>
        </g>
    </g>
</svg>