<?xml version="1.0" encoding="UTF-8"?>
<svg width="42px" height="24px" viewBox="0 0 42 24" version="1.1" xmlns="http://www.w3.org/2000/svg" xmlns:xlink="http://www.w3.org/1999/xlink">
    <!-- Generator: sketchtool 52.5 (67469) - http://www.bohemiancoding.com/sketch -->
    <title>584DFE50-D143-4E06-B7B8-7512D4BD8B4B</title>
    <desc>Created with sketchtool.</desc>
    <g id="Policy-&amp;-Rules" stroke="none" stroke-width="1" fill="none" fill-rule="evenodd">
        <g id="Dashboard/Policies/V2.1" transform="translate(-1147.000000, -489.000000)">
            <g id="noun_users_943303_1A1A1A" transform="translate(1147.000000, 488.000000)" fill="#1A1A1A">
                <g id="Group" transform="translate(0.498844, 0.778393)">
                    <path d="M8.00757207,15.3875014 C10.823076,15.3875014 13.1130374,13.0970842 13.1130374,10.2815803 C13.1130374,7.46607642 10.8226202,5.17611501 8.00757207,5.17611501 C5.19252396,5.17611501 2.90165094,7.46607642 2.90165094,10.2815803 C2.90165094,13.0970842 5.19206816,15.3875014 8.00757207,15.3875014 Z M8.00757207,7.32432124 C9.63844029,7.32432124 10.9648312,8.65071211 10.9648312,10.2815803 C10.9648312,11.9124485 9.63844029,13.2388394 8.00757207,13.2388394 C6.37670385,13.2388394 5.05031298,11.9119927 5.05031298,10.2815803 C5.05031298,8.65116791 6.37670385,7.32432124 8.00757207,7.32432124 Z" id="Shape" fill-rule="nonzero"></path>
                    <path d="M2.14866204,22.9009815 C2.14866204,20.7071948 3.93313635,18.9227205 6.12692303,18.9227205 L9.88776531,18.9227205 C10.000349,18.9227205 10.1120211,18.9272786 10.2223258,18.9368505 C10.5336402,18.9637429 10.8426756,18.8593637 11.0687546,18.6515169 C11.2889081,18.4486839 11.4106079,18.1715549 11.4106079,17.8711797 C11.4106079,17.3233028 10.9912678,16.8533685 10.4552418,16.8018626 C10.268362,16.7840862 10.0792032,16.7745143 9.88776531,16.7745143 L6.12692303,16.7745143 C2.74850066,16.7740585 0,19.5225592 0,22.9009815 L0,23.342656 L2.14866204,23.342656 L2.14866204,22.9009815 Z" id="Path"></path>
                    <path d="M11.7916604,23.3422002 L13.9403224,23.3422002 L13.9403224,20.6971671 C13.9403224,18.2175911 15.9577128,16.2002007 18.4377446,16.2002007 L22.5851091,16.2002007 C25.0646851,16.2002007 27.0825313,18.2175911 27.0825313,20.6971671 L27.0825313,23.3422002 L29.2311933,23.3422002 L29.2311933,20.6971671 C29.2311933,18.4541536 28.1049006,16.3761412 26.2183261,15.139088 C25.1335116,14.4275773 23.8773146,14.0515387 22.5855649,14.0515387 L18.4382004,14.0515387 C16.3857131,14.0515387 14.4781716,14.9859378 13.2046541,16.6149828 C12.2807385,17.7968836 11.792572,19.2085099 11.792572,20.6971671 L11.792572,23.3422002 L11.7916604,23.3422002 Z" id="Path"></path>
                    <path d="M34.8954749,16.7740585 L31.1346326,16.7740585 C31.0293418,16.7740585 30.9249626,16.7772491 30.8210391,16.7827188 C30.2417117,16.8146251 29.7877305,17.2872943 29.7877305,17.8593288 C29.7877305,18.1546901 29.9103419,18.4395679 30.12457,18.6414892 C30.3401655,18.8443222 30.6223084,18.9459666 30.9158465,18.9291018 C30.9883194,18.9245438 31.0612481,18.9227205 31.1346326,18.9227205 L34.8954749,18.9227205 C37.0892615,18.9227205 38.8737359,20.7071948 38.8737359,22.9009815 L38.8737359,23.342656 L41.0223979,23.342656 L41.0223979,22.9009815 C41.0223979,19.5225592 38.2738972,16.7740585 34.8954749,16.7740585 Z" id="Path"></path>
                    <path d="M33.0148258,15.3875014 C35.8303297,15.3875014 38.1207469,13.0970842 38.1207469,10.2815803 C38.1207469,7.46607642 35.8303297,5.17611501 33.0148258,5.17611501 C30.1993219,5.17611501 27.9089047,7.46607642 27.9089047,10.2815803 C27.9089047,13.0970842 30.1997777,15.3875014 33.0148258,15.3875014 Z M33.0148258,7.32432124 C34.645694,7.32432124 35.9720849,8.65071211 35.9720849,10.2815803 C35.9720849,11.9124485 34.6452382,13.2388394 33.0148258,13.2388394 C31.3844134,13.2388394 30.0575667,11.9119927 30.0575667,10.2815803 C30.0575667,8.65116791 31.3844134,7.32432124 33.0148258,7.32432124 Z" id="Shape" fill-rule="nonzero"></path>
                    <path d="M20.5111989,13.2051099 C24.0523435,13.2051099 26.933939,10.3239701 26.933939,6.78236978 C26.933939,3.24076943 24.0527993,0.359629688 20.5111989,0.359629688 C16.9695986,0.359629688 14.0884588,3.24076943 14.0884588,6.78236978 C14.0884588,10.3235143 16.9695986,13.2051099 20.5111989,13.2051099 Z M20.5111989,2.50783592 C22.8677078,2.50783592 24.785277,4.42540512 24.785277,6.78236978 C24.785277,9.13887864 22.8677078,11.0564478 20.5111989,11.0564478 C18.1542343,11.0564478 16.2366651,9.13887864 16.2366651,6.78236978 C16.2366651,4.42540512 18.1542343,2.50783592 20.5111989,2.50783592 Z" id="Shape" fill-rule="nonzero"></path>
                </g>
            </g>
        </g>
    </g>
</svg>